HIERARCHY
ROOT Hips
{
	OFFSET 0.000000 0.000000 0.000000
	CHANNELS 6 Xposition Yposition Zposition Zrotation Yrotation Xrotation 
	JOINT LHipJoint
	{
		OFFSET 0.000000 0.000000 0.000000
		CHANNELS 3 Zrotation Yrotation Xrotation
		JOINT LeftUpLeg
		{
			OFFSET 1.363060 -1.794630 0.839290
			CHANNELS 3 Zrotation Yrotation Xrotation
			JOINT LeftLeg
			{
				OFFSET 2.448110 -6.726130 0.000000
				CHANNELS 3 Zrotation Yrotation Xrotation
				JOINT LeftFoot
				{
					OFFSET 2.562200 -7.039590 0.000000
					CHANNELS 3 Zrotation Yrotation Xrotation
					JOINT LeftToeBase
					{
						OFFSET 0.157640 -0.433110 2.322550
						CHANNELS 3 Zrotation Yrotation Xrotation
						End Site
						{
							OFFSET 0.000000 0.000000 0.000000
						}
					}
				}
			}
		}
	}
	JOINT RHipJoint
	{
		OFFSET 0.000000 0.000000 0.000000
		CHANNELS 3 Zrotation Yrotation Xrotation
		JOINT RightUpLeg
		{
			OFFSET -1.305520 -1.794630 0.839290
			CHANNELS 3 Zrotation Yrotation Xrotation
			JOINT RightLeg
			{
				OFFSET -2.542530 -6.985550 0.000000
				CHANNELS 3 Zrotation Yrotation Xrotation
				JOINT RightFoot
				{
					OFFSET -2.568260 -7.056230 0.000000
					CHANNELS 3 Zrotation Yrotation Xrotation
					JOINT RightToeBase
					{
						OFFSET -0.164730 -0.452590 2.363150
						CHANNELS 3 Zrotation Yrotation Xrotation
						End Site
						{
							OFFSET 0.000000 0.000000 0.000000
						}
					}
				}
			}
		}
	}
}
MOTION
Frames: 24
Frame Time: 0.008333
-2.174459 17.188346 -0.871877 -138.621624 84.555796 -107.986322 -8.835179 -1.063871 -0.450591 -21.944057 -2.170994 -58.462139 -3.246674 0.569100 21.204191 1.894091 9.346384 -1.399237 1.984600 -0.000000 -32.342300 9.923092 -1.534891 -6.841978 14.001199 -18.049291 -34.359475 1.893128 -4.378669 45.225297 0.004771 3.283491 12.389537 1.035200 0.000000 -78.178900
-1.971754 17.175011 -0.904699 -138.940185 84.305389 -108.474052 -8.840824 -0.922766 -0.587207 -23.107226 -1.495334 -58.359174 -3.356873 0.577251 20.875084 1.892837 9.509391 -0.923596 2.111400 0.000001 -32.209700 10.004622 -1.553180 -6.826675 13.623288 -18.298516 -34.259292 1.751214 -4.455019 46.343955 -0.017027 3.610538 13.524483 1.244200 -0.000000 -77.127800
-1.769027 17.150011 -0.937607 -138.922603 84.061555 -108.622976 -8.842253 -0.788301 -0.734762 -24.189868 -0.806872 -58.289581 -3.439316 0.607133 20.833307 1.927493 9.775224 -0.700747 2.208200 0.000001 -31.259600 10.076753 -1.567874 -6.784636 13.258318 -18.397029 -34.218750 1.601903 -4.534250 47.646211 -0.055013 3.707582 14.172012 1.346200 -0.000000 -75.798100
-1.566591 17.113059 -0.970890 -138.512312 83.825545 -108.378639 -8.841499 -0.668578 -0.886294 -25.141334 -0.126710 -58.236846 -3.493537 0.651885 21.048683 1.996511 10.115460 -0.794134 2.255000 -0.000000 -29.419400 10.136868 -1.580715 -6.721981 12.915649 -18.349917 -34.232813 1.444379 -4.617806 49.130501 -0.106730 3.540402 14.298057 1.316000 0.000000 -74.307399
-1.364612 17.063900 -1.004737 -137.664278 83.596479 -107.687983 -8.840681 -0.570557 -1.031169 -25.917778 0.515718 -58.208572 -3.520424 0.707121 21.506968 2.097814 10.498458 -1.257485 2.229200 0.000000 -26.703800 10.182204 -1.593297 -6.639956 12.610351 -18.152006 -34.310831 1.277414 -4.706109 50.795242 -0.172015 3.086752 13.890170 1.146900 0.000000 -72.673100
-1.163613 17.002747 -1.039201 -136.445290 83.375099 -106.624404 -8.841088 -0.500678 -1.166378 -26.492680 1.095453 -58.189620 -3.520877 0.769746 22.197798 2.228981 10.897760 -2.125433 2.109300 0.000000 -23.254101 10.213084 -1.604038 -6.548405 12.335728 -17.831847 -34.438530 1.102727 -4.799192 52.617444 -0.252195 2.355730 12.970341 0.859300 0.000000 -71.060501
-0.963867 16.929876 -1.074166 -134.907874 83.158312 -105.233356 -8.843789 -0.462874 -1.285977 -26.851756 1.584845 -58.198543 -3.496454 0.841124 23.137640 2.388263 11.291086 -3.417856 1.876700 0.000000 -19.243100 10.229493 -1.612349 -6.449102 12.095394 -17.397610 -34.621349 0.921688 -4.896250 54.579198 -0.350284 1.369414 11.574734 0.490400 0.000000 -69.413000
-0.765924 16.846018 -1.109403 -133.174217 82.944349 -103.640371 -8.848730 -0.459440 -1.391014 -26.999628 1.965356 -58.240573 -3.448160 0.924338 24.346136 2.573968 11.667882 -5.125443 1.520300 -0.000000 -14.934900 10.234325 -1.615723 -6.348785 11.876744 -16.877679 -34.848484 0.737604 -4.996702 56.649570 -0.469238 0.175244 9.763691 0.094100 0.000000 -67.687600
-0.570006 16.751862 -1.144544 -131.329810 82.728845 -101.922884 -8.855656 -0.490137 -1.481231 -26.952723 2.224363 -58.356678 -3.377874 1.027448 25.876025 2.784705 12.017501 -7.241661 1.030500 -0.000000 -10.431600 10.229559 -1.613318 -6.245607 11.679884 -16.278574 -35.126674 0.552314 -5.098776 58.799462 -0.612660 -1.179651 7.619940 -0.275700 -0.000000 -65.861601
-0.377055 16.648923 -1.179120 -129.546255 82.515673 -100.267936 -8.863067 -0.552956 -1.567934 -26.746553 2.367455 -58.532687 -3.286207 1.154510 27.734331 3.017423 12.352658 -9.694900 0.416700 0.000000 -6.093400 10.222424 -1.600725 -6.150291 11.473842 -15.646021 -35.429313 0.369810 -5.203008 60.987929 -0.779599 -2.619674 5.234471 -0.564900 0.000000 -63.844500
-0.187471 16.538653 -1.212633 -127.922983 82.307241 -98.776180 -8.870402 -0.643702 -1.658808 -26.421484 2.405854 -58.785289 -3.175092 1.311502 29.941245 3.268145 12.683182 -12.418638 -0.310101 0.000000 -2.052400 10.217822 -1.575877 -6.063875 11.245151 -14.996556 -35.750903 0.191283 -5.308740 63.180575 -0.967428 -4.082723 2.711573 -0.738600 0.000000 -61.616300
-0.001887 16.422816 -1.244551 -126.561577 82.109989 -97.557674 -8.876974 -0.756429 -1.764608 -26.026007 2.361285 -59.107765 -3.046527 1.500558 32.482617 3.530706 13.026865 -15.315635 178.871200 -0.000000 -1.521200 10.222060 -1.535773 -5.990063 10.971879 -14.353093 -36.079179 0.017519 -5.416469 65.345356 -1.168834 -5.502287 0.150170 -0.779900 0.000000 -59.132500
0.179333 16.303347 -1.274376 -125.541206 81.932511 -96.695581 -8.882709 -0.883620 -1.893658 -25.609295 2.257211 -59.484068 -2.903211 1.719469 35.312673 3.798005 13.403288 -18.279998 177.985900 0.000000 -4.538700 10.240140 -1.477889 -5.930536 10.635826 -13.730245 -36.407576 -0.151638 -5.526470 67.452636 -1.373650 -6.820500 -2.355369 -0.693300 0.000000 -56.418900
0.355858 16.182349 -1.301654 -124.931529 81.784393 -96.263907 -8.887189 -1.016429 -2.052930 -25.220374 2.119059 -59.883955 -2.748256 1.961903 38.355702 4.061873 13.829091 -21.200621 177.061800 -0.000000 -6.927500 10.276438 -1.399829 -5.886724 10.219680 -13.139064 -36.731394 -0.316642 -5.639453 69.478652 -1.569689 -7.986171 -4.728952 -0.499900 -0.000000 -53.512500
0.527542 16.061953 -1.326023 -124.793525 81.673998 -96.323767 -8.889800 -1.145387 -2.245429 -24.902643 1.968311 -60.270672 -2.585417 2.218111 41.513411 4.314763 14.313947 -23.978550 176.124800 0.000000 -8.684000 10.333210 -1.299982 -5.857966 9.711651 -12.583110 -37.052349 -0.477972 -5.755748 71.402916 -1.745239 -8.960641 -6.911513 -0.232700 -0.000000 -50.508200
0.694516 15.944273 -1.347303 -125.187258 81.605839 -96.931874 -8.889638 -1.261521 -2.470874 -24.690563 1.822884 -60.606412 -2.419023 2.477109 44.679877 4.549898 14.855248 -26.535356 175.198900 0.000001 -9.841399 10.410556 -1.178056 -5.841776 9.107293 -12.059827 -37.376969 -0.635850 -5.875387 73.209669 -1.890768 -9.718663 -8.865337 0.071000 -0.000000 -47.523900
0.857157 15.831248 -1.365516 -126.169092 81.578482 -98.137779 -8.886377 -1.357681 -2.725221 -24.605218 1.696099 -60.857791 -2.253792 2.728224 47.752987 4.761723 15.437176 -28.818302 174.305900 0.000000 -10.462900 10.505674 -1.035662 -5.833154 8.411406 -11.560231 -37.716586 -0.790024 -5.997637 74.885955 -2.000393 -10.250727 -10.572721 0.376400 0.000000 -44.685900
1.016026 15.724485 -1.380981 -127.790371 81.581900 -99.984442 -8.880510 -1.429977 -3.002065 -24.652128 1.597872 -60.999149 -2.094699 2.962510 50.646353 4.945864 16.031072 -30.803717 173.466400 -0.000001 -10.629300 10.613410 -0.876501 -5.825812 7.638318 -11.071866 -38.084838 -0.939685 -6.121365 76.423086 -2.072052 -10.561141 -12.035862 0.656500 0.000000 -42.102300
1.171792 15.625232 -1.394353 -130.080830 81.596670 -102.492550 -8.874407 -1.478210 -3.292536 -24.821081 1.534126 -61.014566 -1.946650 3.173212 53.294395 5.099187 16.599631 -32.494086 172.699200 0.000000 -10.436600 10.726032 -0.706477 -5.812284 6.811663 -10.580040 -38.496938 -1.083468 -6.244716 77.815520 -2.107519 -10.668178 -13.272799 0.894400 -0.000000 -39.849500
1.325323 15.534361 -1.406512 -133.031550 81.597444 -105.643610 -8.872194 -1.505354 -3.586547 -25.088785 1.507391 -60.897396 -1.814584 3.356057 55.653909 5.219676 17.100841 -33.914855 172.020500 0.000000 -9.989900 10.834124 -0.532684 -5.785095 5.960376 -10.069963 -38.967131 -1.219481 -6.365046 79.059672 -2.111551 -10.600810 -14.313449 1.083300 0.000001 -37.964700
1.477452 15.452272 -1.418595 -136.566867 81.554554 -109.354356 -8.879629 -1.516428 -3.873569 -25.423256 1.517007 -60.649023 -1.702873 3.509153 57.703363 5.306701 17.495308 -35.107701 171.441800 0.000000 -9.398000 10.927351 -0.362426 -5.737740 5.115629 -9.529124 -39.506692 -1.345567 -6.478874 80.154134 -2.090850 -10.395371 -15.193077 1.224600 0.000000 -36.451400
1.628962 15.379081 -1.431856 -140.528773 81.440103 -113.461697 -8.902835 -1.516616 -4.143683 -25.788566 1.559837 -60.277615 -1.615026 3.632918 59.440094 5.361131 17.751820 -36.123403 170.968800 0.000000 -8.765800 10.995896 -0.201375 -5.665253 4.307324 -8.947795 -40.123705 -1.459480 -6.581809 81.098455 -2.053010 -10.091619 -15.947357 1.324800 -0.000000 -35.289800
1.780545 15.314656 -1.447519 -144.685397 81.233100 -117.730118 -8.946719 -1.509552 -4.388178 -26.149259 1.629864 -59.796761 -1.553170 3.729631 60.876195 5.385408 17.852002 -37.013095 170.600800 0.000000 -8.182500 11.032246 -0.052352 -5.564550 3.560343 -8.319782 -40.821057 -1.559092 -6.668751 81.892135 -2.005578 -9.729203 -16.606679 1.392700 -0.000000 -34.447600
1.932718 15.258744 -1.466674 -148.771714 80.921690 -121.893799 -9.013384 -1.496732 -4.600592 -26.474533 1.719693 -59.222926 -1.517637 3.802702 62.034762 5.383454 17.792796 -37.821629 170.331700 0.000000 -7.710300 11.032689 0.085024 -5.434411 2.893053 -7.642675 -41.597221 -1.642466 -6.734792 82.534161 -1.955182 -9.343447 -17.193598 1.437100 -0.000000 -33.886500
